<svg xmlns="http://www.w3.org/2000/svg" viewBox="0 0 64 64">
  <circle cx="32" cy="32" r="32" fill="#fef3c7"/>
  <path fill="#78350f" d="M32 12c-4 0-6 3-5 6-4 0-7 2-7 6 0 2 1 3 2 4-3 1-6 3-6 7 0 3 2 5 5 6-3 1-5 3-5 6 0 4 4 6 8 6h20c4 0 8-2 8-6 0-3-2-5-5-6 3-1 5-3 5-6 0-4-3-6-6-7 1-1 2-2 2-4 0-4-3-6-7-6 1-3-1-6-5-6z"/>
  <circle cx="26" cy="36" r="2" fill="#fef3c7"/>
  <circle cx="38" cy="36" r="2" fill="#fef3c7"/>
  <path d="M28 44c2 2 6 2 8 0" stroke="#fef3c7" stroke-width="2" fill="none" stroke-linecap="round"/>
</svg>
